<?xml version="1.0" standalone="no"?>
<!DOCTYPE svg PUBLIC "-//W3C//DTD SVG 20010904//EN"
 "http://www.w3.org/TR/2001/REC-SVG-20010904/DTD/svg10.dtd">
<svg version="1.0" xmlns="http://www.w3.org/2000/svg"
 width="208.000000pt" height="208.000000pt" viewBox="0 0 208.000000 208.000000"
 preserveAspectRatio="xMidYMid meet">
<metadata>
Created by potrace 1.14, written by Peter Selinger 2001-2017
</metadata>
<g transform="translate(0.000000,208.000000) scale(0.100000,-0.100000)"
fill="#000000" stroke="none">
<path d="M1000 2000 c-27 -27 -25 -44 6 -69 l25 -20 -15 -61 c-34 -133 -75
-190 -136 -190 -38 0 -85 37 -129 100 -23 33 -47 60 -52 60 -6 0 -1 12 10 26
33 42 1 84 -53 70 -47 -12 -43 -54 8 -84 34 -20 41 -47 38 -146 -3 -76 -29
-94 -101 -71 -27 8 -39 17 -82 59 -22 22 -26 32 -18 42 8 9 5 18 -11 34 -23
23 -38 23 -53 -2 -14 -21 -2 -48 22 -48 22 0 34 -10 71 -60 14 -18 32 -40 40
-50 8 -9 16 -21 17 -26 1 -5 14 -32 30 -60 l28 -52 385 2 c222 1 392 6 401 11
8 6 30 36 48 68 18 32 44 71 58 87 14 17 22 30 18 30 -3 0 5 11 19 25 14 14
31 25 39 25 7 0 21 6 30 13 16 11 16 14 2 35 -9 12 -20 22 -25 22 -17 0 -41
-33 -35 -48 6 -17 -82 -115 -97 -106 -4 3 -8 1 -8 -4 0 -15 -69 -5 -87 13 -17
18 -22 89 -11 152 4 20 2 35 -5 40 -7 3 -9 3 -5 -1 3 -4 -3 -19 -15 -33 -70
-84 -125 -123 -169 -123 -36 0 -78 53 -102 127 -39 124 -39 115 -11 140 14 13
25 30 25 38 0 22 -37 55 -60 55 -11 0 -29 -9 -40 -20z"/>
<path d="M1368 1895 c-9 -19 -7 -29 6 -50 l17 -26 32 18 c37 22 44 44 22 67
-25 25 -63 20 -77 -9z"/>
<path d="M524 1380 c-18 -5 -19 -20 -19 -325 0 -176 4 -326 9 -334 7 -10 6
-12 -3 -6 -10 6 -11 3 -1 -14 6 -12 15 -19 21 -16 5 4 9 3 8 -2 -4 -22 4 -36
43 -75 22 -22 35 -38 27 -34 -8 4 -3 -2 10 -13 13 -12 20 -21 16 -21 -4 0 -2
-7 5 -15 7 -8 15 -15 19 -15 4 0 7 79 6 175 0 96 4 175 8 175 5 0 5 6 0 13 -4
6 30 -25 77 -71 l83 -83 0 -212 c0 -203 3 -234 31 -263 6 -6 18 -22 26 -34 8
-13 25 -33 38 -46 13 -13 20 -24 16 -24 -4 0 3 -8 14 -19 12 -10 20 -20 18
-22 -2 -2 2 -10 10 -17 8 -7 14 -9 15 -5 0 4 2 16 4 25 2 10 -1 20 -6 24 -5 3
-7 9 -5 13 12 18 15 70 6 76 -8 5 -8 11 0 20 8 9 8 15 0 20 -6 3 -7 11 -4 17
12 20 12 78 0 78 -6 0 -6 4 3 9 9 6 10 11 2 15 -6 4 -8 13 -4 19 10 17 10 146
-1 140 -5 -4 -6 0 -1 7 10 17 12 200 2 200 -4 0 -5 4 -2 10 12 20 14 53 4 71
-6 13 -6 19 1 19 12 0 9 22 -5 33 -7 4 -7 10 0 15 11 8 12 43 1 60 -3 6 -2 13
4 17 7 4 7 12 0 26 -6 10 -7 19 -2 19 12 0 9 93 -3 102 -6 5 -5 8 3 8 10 0 10
5 2 20 -6 11 -7 20 -2 20 5 0 9 7 9 15 0 8 -5 15 -10 15 -6 0 -6 5 0 13 10 13
9 165 -1 175 -8 7 -446 9 -472 2z m301 -169 c7 -1 11 -48 11 -131 l1 -130 -82
77 c-82 77 -82 78 -84 130 -1 32 4 53 11 55 10 4 111 3 143 -1z"/>
<path d="M1087 1378 c-8 -5 -11 -190 -12 -657 0 -358 2 -651 5 -650 7 0 85 98
175 219 43 58 134 175 202 262 l123 156 0 139 0 138 -140 0 c-96 0 -143 -4
-148 -12 -6 -10 -7 -36 -3 -128 l1 -30 60 2 c59 2 60 2 60 -25 0 -19 -24 -57
-75 -122 -42 -52 -79 -96 -83 -97 -4 -2 -7 141 -7 317 0 313 0 320 20 321 32
1 119 1 132 0 8 -1 13 -25 15 -68 l3 -68 80 0 80 0 3 153 3 152 -23 1 c-113 5
-462 3 -471 -3z"/>
</g>
</svg>
